<svg id="Layer_1" fill="#ffff" data-name="Layer 1" xmlns="http://www.w3.org/2000/svg" viewBox="0 0 408.68 408.88"><path d="M408.68,192.45v24q-.49,4.32-1,8.62c-4.89,44-21.69,82.81-51.34,115.71-31.48,34.94-70.48,56.75-116.89,65-7.69,1.37-15.48,2.14-23.23,3.18h-24c-6.84-.85-13.72-1.47-20.51-2.61-42.7-7.13-79.9-25.51-110.52-56.11C15.33,304.26-4.88,248.47,1,183.87,4.93,140.51,21.9,102.18,50.9,69.62,89.4,26.37,137.85,3.07,195.68.25c40.32-2,78.23,7.44,112.74,28.5,53.05,32.36,85.63,79.24,97.08,140.5C406.93,176.91,407.64,184.71,408.68,192.45ZM204.32,31.74C109.11,31.67,31.8,108.9,31.6,204.28c-.2,95.1,77,172.52,172.41,172.85,95.17.33,173-77.41,172.92-172.74S299.61,31.81,204.32,31.74Z"/><path d="M220.16,153c0,13.84.06,27.68,0,41.52a5.77,5.77,0,0,0,2.65,5.27q26.73,19.89,53.32,40c6.61,5,8.82,11.65,6.41,18.54a15.69,15.69,0,0,1-22.85,8.44,65.89,65.89,0,0,1-5.85-4.15c-19.16-14.36-38.27-28.79-57.49-43.07a18.28,18.28,0,0,1-8-15.64c0-30.61,0-61.22,0-91.83,0-12.39,10.58-20.26,21.45-16.2,6.42,2.39,10.26,8.23,10.3,16C220.21,125.62,220.16,139.33,220.16,153Z"/></svg>