<svg id="Layer_1" fill="#ffff" data-name="Layer 1" xmlns="http://www.w3.org/2000/svg" viewBox="0 0 306.5 408.63"><path d="M150.09,408.63c-4.57-3.94-9.55-7.51-13.66-11.89-34-36.25-65.19-74.77-91.26-117.2-16-26-29.92-53-38.37-82.49C-8.09,145,1.49,97.61,35.28,55.76c25-30.92,58-49.15,97.56-54.29C182.63-5,225.7,10,261.42,44.82c24.52,23.91,38.69,53.52,43.66,87.59,4.28,29.34-1.53,57.11-11.89,84.27-11.06,29-26.41,55.68-43.61,81.33a757.76,757.76,0,0,1-83.89,103.31c-2.7,2.8-6.12,4.89-9.21,7.31Zm3.28-30.94c.88-1.18,1.23-1.76,1.68-2.24,30.58-33.43,59.06-68.51,83.16-107,16.22-25.87,30.13-52.84,38.2-82.53a122.8,122.8,0,0,0-1.88-72.65c-10.38-31-29.88-54.9-58.31-71.13-27.94-15.94-58-20.58-89.35-13.91-32.27,6.91-58.36,24-77.44,51-21.16,29.94-28.5,63.16-21,99.19,5.61,27,17.33,51.54,31,75.23,20.46,35.52,45.2,67.95,71.85,99C138.34,360.84,145.63,368.92,153.37,377.69Z" transform="translate(0 0)"/><path d="M153.14,76.5c42.14-.12,76.74,34.4,76.78,76.59a76.64,76.64,0,0,1-153.27.29C76.45,111.27,110.93,76.61,153.14,76.5Zm51.23,76.75a51.09,51.09,0,1,0-51.18,51h.08A51.24,51.24,0,0,0,204.37,153.25Z" transform="translate(0 0)"/></svg>