<svg id="Layer_1" data-name="Layer 1" xmlns="http://www.w3.org/2000/svg" viewBox="0 0 325.231 327.08"><defs><style>.cls-1{fill:#fff;}</style></defs><path class="cls-1" d="M102.239,251.275l55.8,61.143c3.224-2.946,6.474-5.5,9.232-8.512,9.8-10.689,21.658-14.166,35.682-10.845,6.487,1.536,12.012-.466,16.95-4.764q27.3-23.762,54.672-47.44c11.431-9.949,12.265-24.615,1.977-35.778Q252.021,178.466,227.325,152c-8.151-8.741-18.729-8.9-27.4-.548q-26.336,25.374-52.638,50.781c-.719.695-1.425,1.406-2.172,2.071-3.195,2.842-6.473,2.99-8.971.425-2.436-2.5-2.122-5.948.681-8.971,3.482-3.755,6.883-7.585,10.642-11.74-2.042-2.084-4.722-4.81-7.393-7.547-6.374-6.532-12.791-13.024-19.078-19.639a3.535,3.535,0,0,0-4.505-1.034Q69.528,173.466,33.3,138.684c-.359-.343-.734-.669-1.413-1.287-4.384,3.2-9.255,5.043-14.895,4.087C9.4,140.2,4.806,134.862.781,129.127c-1.879-2.678-.058-5.405,2.189-7.592Q20.978,104,38.9,86.387,81.24,44.923,123.579,3.454c4.625-4.53,7.336-4.727,11.591.139,3.143,3.594,6.4,7.481,8.123,11.826,2.313,5.834.077,11.523-3.366,15.974,4.659,6.663,9.777,12.717,13.494,19.535,11.036,20.241,12.074,41.409,3.961,62.927-1.079,2.864-.692,4.4,1.414,6.377,9.388,8.8,18.632,17.761,28.233,26.955,1.291-1.205,3.273-3.052,5.253-4.9,13.112-12.255,31.155-11.806,43.452,1.317q24.75,26.412,49.236,53.067c14.007,15.188,14.227,34.512.7,50.062-.242.278-.428.605-.8,1.142.684.785,1.356,1.642,2.115,2.413,10.17,10.34,20.523,20.506,30.489,31.039,13.8,14.579,8.449,37.718-10.163,44.086-10.972,3.754-20.7,1.1-28.816-7.16q-15.776-16.05-31.448-32.2c-.87-.891-1.672-1.848-2.8-3.1-5.184,4.5-10.221,8.727-15.1,13.135-5.422,4.9-11.436,8.653-18.866,9.094a48.2,48.2,0,0,1-11.888-.826c-7.993-1.547-14.728.089-20.56,6-4.734,4.8-9.88,9.2-14.868,13.748-4.1,3.741-6.957,3.727-10.593-.25q-30.75-33.633-61.425-67.33c-3.025-3.322-3.5-5.957-.461-9.3C97.844,239.137,100,230.4,97.7,219.5c-1.828-8.683,1.024-17.4,5.714-25.072,4.561-7.457,9.459-14.711,14.307-21.988,2.32-3.483,5.724-4.253,8.668-2.222,2.866,1.977,3.37,5.429,1.111,8.938-3.787,5.882-7.58,11.766-11.555,17.522-5.678,8.219-8.338,17.237-5.941,26.977,2.371,9.633.319,17.731-6.088,25.013A21.226,21.226,0,0,0,102.239,251.275ZM40.556,128.708c14.515,17.7,41.034,25.279,64.435,18.646,24.019-6.809,42.355-27.927,45.187-52.625,2.425-21.145-4.132-39.2-20-54.9-3.23,3.563-5.986,6.809-8.965,9.835-3.4,3.454-6.858,3.738-9.5,1.068C109,48,109.35,44.707,112.82,41.275c5.6-5.537,11.293-10.982,16.854-16.557,3.511-3.519,3.326-6.47-.594-9.988L14.777,126.671c3.093,3.836,6.2,4.243,9.6,1.159,2.867-2.6,5.566-5.392,8.334-8.1Q57.216,95.708,81.728,71.694c3.4-3.327,6.934-3.632,9.533-.956,2.569,2.646,2.126,6.175-1.238,9.524-2.3,2.293-4.65,4.543-6.972,6.817C68.949,100.892,54.847,114.707,40.556,128.708ZM275.377,255.93l-22.116,19.222c.519.632.735.939.993,1.205,11.073,11.35,22.094,22.752,33.248,34.022,6.112,6.176,15.185,6.327,21.194.616,6.052-5.754,6.2-15.135.145-21.473-6.469-6.77-13.069-13.415-19.673-20.054C284.7,264.974,280.125,260.583,275.377,255.93Zm-98.37-100.746-26.826-25.756L129.9,149.915l28.1,26.2Z" transform="translate(0 0)"/><path class="cls-1" d="M143.784,90.092A38.654,38.654,0,0,1,132.69,116.73c-2.945,3.1-6.258,3.45-8.925,1.07-2.637-2.354-2.608-5.794.077-8.954,10.749-12.648,10.906-26.255.449-38.98-2.6-3.171-2.6-6.694.024-9,2.6-2.289,6.135-1.867,8.909,1.168C140.273,69.747,143.8,78.842,143.784,90.092Z" transform="translate(0 0)"/></svg>