<svg id="Layer_1" data-name="Layer 1" xmlns="http://www.w3.org/2000/svg" viewBox="0 0 313.377 322.568"><defs><style>.cls-1{fill:#fff;}</style></defs><path class="cls-1" d="M226.447,145.639c-2.335,0-4.672.054-7.006-.012-4.309-.122-6.736-2.259-6.759-5.855-.023-3.631,2.376-5.888,6.673-5.928,8.876-.082,17.752-.03,26.629-.03h55.228c0-9.5.564-18.641-.164-27.673-.68-8.447-8.219-14.748-16.734-14.816-20.751-.165-41.505-.121-62.257,0-1.7.01-3.544,1.025-5.06,1.986q-83.574,52.955-167.089,106c-5.177,3.285-8.631,3.178-10.775-.3s-.792-6.46,4.487-9.811Q128.577,135.28,213.578,81.429a13.866,13.866,0,0,1,6.953-2.029c20.627-.154,41.255-.13,61.883-.076,18.215.047,30.864,12.722,30.941,30.924.039,9.128.018,18.256,0,27.384-.01,6.139-1.864,8-8.094,8-18.628.021-37.256-.042-55.882.089a8.9,8.9,0,0,0-5.343,1.826q-65.377,55.977-130.548,112.2a6.975,6.975,0,0,0-2.027,4.388c-.285,3.855.084,7.756-.141,11.619-.279,4.775.063,9.1,4.222,12.437,1.087.871,1.6,2.834,1.8,4.372q1.493,11.145,2.641,22.334c.553,5.29-1.646,7.647-7.062,7.651q-52.883.034-105.765,0c-5.447,0-7.732-2.744-7.042-8.071.9-6.939,1.558-13.915,2.712-20.81A14.424,14.424,0,0,1,5.946,286.8,11.146,11.146,0,0,0,8.9,278.761q-.117-86.843-.057-173.685c0-6.074,1.962-9.04,5.97-9.043s5.981,2.976,5.981,9.038q0,88.532.072,177.062a13.851,13.851,0,0,1-3.8,10.116,14.26,14.26,0,0,0-2.911,6.528c-.785,3.742-1,7.6-1.48,11.658h94.747c-1.32-7.243.457-15.062-6.219-20.766-1.235-1.055-1.622-3.595-1.665-5.467-.179-7.749.064-15.508-.138-23.256-.093-3.608,1.251-6.034,3.946-8.343Q163,201.477,222.533,150.2c1.407-1.21,2.773-2.468,4.158-3.7Z" transform="translate(0 0)"/><path class="cls-1" d="M59.544,91.236q-21.742,0-43.485-.006c-6.107-.008-8-1.95-8.013-8.121-.01-4.374-.026-8.749,0-13.123.065-9.51,5.066-15.85,14.476-18.384q29.448-7.931,58.9-15.859Q146.085,18.257,210.74.753c11.792-3.183,21.053,4.041,20.2,15.708-.437,6.015-4.017,9.723-9.269,12.119Q202.1,37.512,182.529,46.466c-22.58,10.318-45.139,20.686-67.773,30.886C112.208,78.5,111.242,79.8,111.3,82.6c.143,6.87-1.762,8.635-8.647,8.638Q81.1,91.245,59.544,91.236ZM99.633,79.164c-1.611-6.984,2.671-9.255,7.728-11.543Q161.25,43.24,215,18.551c2.036-.93,4.714-1.759,3.778-4.658-.952-2.948-3.5-2.069-5.707-1.385-.595.185-1.21.3-1.812.467Q142.238,31.608,73.219,50.242,49.549,56.631,25.872,62.99c-2.659.713-5.314,1.789-5.632,4.763a107.937,107.937,0,0,0-.1,11.411Z" transform="translate(0 0)"/><path class="cls-1" d="M99.466,116.93c0-4.75-.052-9.5.018-14.25.058-3.961,2.283-6.5,5.639-6.645,3.408-.15,6.144,2.529,6.194,6.561q.177,14.436,0,28.875c-.049,4.224-2.476,6.626-6.1,6.557-3.591-.067-5.692-2.514-5.741-6.848C99.423,126.431,99.465,121.68,99.466,116.93Z" transform="translate(0 0)"/></svg>