<svg id="Layer_1" data-name="Layer 1" xmlns="http://www.w3.org/2000/svg" viewBox="0 0 336.089 303.175"><defs><style>.cls-1{fill:#fff;}</style></defs><path class="cls-1" d="M9.772,38.452c-1.561-.077-2.791-.059-4-.214C2.337,37.8.169,35.84.111,32.362Q-.105,19.239.1,6.111C.161,1.97,2.645.024,7.418.016q24.2-.04,48.389-.011,25.319,0,50.639.005c6.191,0,8.1,1.882,8.129,8.021.034,7.251.023,14.5,0,21.753-.017,6.644-1.655,8.275-8.449,8.519-.479.017-.956.1-1.636.182-.063,1.173-.173,2.268-.173,3.363q-.012,69.945,0,139.89c0,6.421,3.622,10.427,8.949,10,4.623-.371,7.652-3.764,7.676-8.955.065-14.126-.141-28.255.078-42.379.207-13.356-.2-26.831,1.439-40.034,5.095-41.072,39.814-76.866,80.63-83.737,33.484-5.636,64.317.291,90.4,23.223,22.035,19.37,34.1,44,34.393,73.43.488,48.751.174,97.509.2,146.264v4.767c7.42,1.994,7.992,2.756,7.993,10.38,0,7,.03,14-.011,21-.032,5.433-2.068,7.462-7.5,7.465q-49.7.019-99.4,0c-5.649,0-7.636-1.993-7.665-7.691-.037-7.126-.013-14.252-.009-21.377,0-7.471,1.586-9.1,8.913-9.182.86-.01,1.72,0,3.126,0v-4.19q0-70.319,0-140.639c0-7.171-2.89-11.067-8.214-11.129-5.44-.064-8.454,3.967-8.455,11.323,0,21.252.049,42.505-.013,63.757-.142,49.092-32.94,90.266-81.008,99.789-62.059,12.294-109.8-24.649-122.417-72.767A113.691,113.691,0,0,1,9.93,183.3C9.587,136.551,9.772,89.8,9.772,43.04ZM316.017,264.707c.071-1.386.188-2.6.188-3.814.009-47.754.1-95.508-.088-143.261a97.856,97.856,0,0,0-2.165-21.183c-9.445-41.526-44.681-69.29-87.862-69.822-28.814-.355-53.046,9.727-71.911,31.655-14.336,16.662-21.17,36.287-21.26,58.221-.091,22.252.033,44.5-.051,66.755-.04,10.554-7.494,19.028-17.449,20.192-12.912,1.509-23.03-7.646-23.042-21.043Q92.316,112.651,92.36,42.9V38.551H21.849c-.052.987-.125,1.723-.125,2.46.006,48.629-.18,97.259.115,145.886.138,22.829,8.609,42.693,24.337,59.205,19.457,20.429,43.64,29.07,71.647,27.917,29.233-1.2,52.651-13.455,70.053-36.851,11.537-15.51,17.029-33.185,17.034-52.534.006-22.252-.073-44.5.036-66.756.067-13.595,11.566-22.976,24.6-20.322,9.525,1.94,15.886,10.159,15.893,20.79q.043,70.881.014,141.761v4.6ZM12.134,26.022h90.332v-13.8H12.134ZM233.615,290.966H323.86V277.057H233.615Z" transform="translate(0 0)"/><path class="cls-1" d="M122.48,236.6c-4.22-3.77-7.549-6.7-10.83-9.685-3.308-3.008-3.879-6.453-1.589-9.155,2.436-2.874,5.962-2.788,9.532.335q11,9.628,21.937,19.333c3.722,3.317,3.779,6.909.086,10.231q-11.147,10.027-22.456,19.875c-3.085,2.695-6.684,2.616-9,.018s-1.917-6.147,1.113-8.9c3.478-3.164,7.024-6.254,11.422-10.159-4.161,0-7.211.009-10.261,0-30.21-.1-54.2-20.117-59.545-49.824a62.994,62.994,0,0,1-.832-10.82c-.082-17.494-.046-34.989-.022-52.484a15.741,15.741,0,0,1,.393-4.075,5.4,5.4,0,0,1,5.835-4.282,5.5,5.5,0,0,1,5.556,5.092,26.814,26.814,0,0,1,.1,3.743c0,17.245-.024,34.489.01,51.734C63.986,215.885,84.6,236.5,112.9,236.6,115.709,236.61,118.513,236.6,122.48,236.6Z" transform="translate(0 0)"/><path class="cls-1" d="M285.746,158.71c2.946-3.333,5.871-6.684,8.842-9.994,3.178-3.539,6.612-4.037,9.413-1.426,2.7,2.52,2.6,5.784-.459,9.276q-9.507,10.863-19.121,21.629c-3.833,4.281-7.184,4.253-10.971-.011q-9.585-10.792-19.1-21.648c-2.938-3.351-3.076-6.864-.461-9.272,2.806-2.583,6.176-2.075,9.406,1.484,3.01,3.316,5.971,6.677,9.457,10.583.13-1.751.274-2.79.275-3.828.015-13,.063-25.995,0-38.993-.138-27.52-21.01-48.24-48.566-48.279-4-.006-8,.082-12-.033-4.039-.116-6.755-2.691-6.692-6.1.063-3.461,2.724-5.774,6.888-5.82,11.87-.132,23.717-.441,35.054,4.274,22.661,9.426,37.04,30.725,37.227,55.791.1,13.988.019,27.978.019,41.966Z" transform="translate(0 0)"/></svg>