<svg id="Layer_1" data-name="Layer 1" xmlns="http://www.w3.org/2000/svg" viewBox="0 0 275.94 339.16"><defs><style>.cls-1{fill:#fff;}</style></defs><path class="cls-1" d="M61.41,207.53c-18.27,8.05-35.07,17-45.46,34.21a28.7,28.7,0,0,0-3.74,13.8c-.36,25-.17,50-.17,75a21,21,0,0,1-.08,3.37c-.49,3.09-2.3,5-5.48,5.17a5.46,5.46,0,0,1-6.07-4.45,15.89,15.89,0,0,1-.29-4.09c0-24.26.21-48.52-.12-72.78-.15-11.68,3.79-21.49,11.16-30.17,13-15.3,29.82-24.9,48.2-32,31-11.94,63.21-15.22,96.14-13,26.05,1.72,51.14,7.33,74.64,19,14.13,7,26.92,15.83,36.65,28.53a42.51,42.51,0,0,1,9.14,27.13c-.22,24.26-.06,48.52-.08,72.77a20.75,20.75,0,0,1-.29,4.47,5.41,5.41,0,0,1-6.29,4.59c-3.15-.28-4.94-2.2-5.25-5.36A36,36,0,0,1,264,330c0-24.13-.16-48.27.09-72.4a32,32,0,0,0-7.36-21.07c-9.79-12.23-22.75-20.09-36.68-26.59-1.89-.88-3.85-1.62-6.11-2.57-.08,1.57-.18,2.65-.18,3.74,0,24.88-.05,49.76.08,74.65a10,10,0,0,0,2,5.67c5.08,6.5,10.58,12.67,15.59,19.22a14.17,14.17,0,0,1,2.54,7.09c.39,4.85.16,9.75.1,14.62-.06,4.24-2.27,6.76-5.84,6.82s-6-2.54-6.1-7a3.76,3.76,0,0,1,0-.75c1.73-9.8-1.53-17.79-8.85-24.27-9.58-8.49-12.32-18.93-11.76-31.71,1-22.84.22-45.75.34-68.64,0-2.82-.61-4.3-3.53-4.93-6.45-1.4-12.84-3.09-20-4.85v4.88q0,40.89,0,81.78c0,7.26-1.58,8.86-8.76,8.86h-63c-7.12,0-8.7-1.62-8.71-8.91V197c-8,2.06-15.47,3.89-22.85,6-.77.22-1.53,2.05-1.54,3.15-.12,10.25-.07,20.5-.07,30.76,0,17-.07,34,0,51a13,13,0,0,1-3.26,9.22c-5.08,5.85-10,11.82-14.74,18A13.86,13.86,0,0,0,53,321.73c-.4,3.71,0,7.5-.16,11.25-.16,3.95-2.55,6.27-6,6.18-3.32-.09-5.6-2.39-5.68-6.15-.13-5.63-.22-11.26.07-16.88a10.2,10.2,0,0,1,2.29-5.29c5.35-6.76,10.93-13.34,16.34-20.06a6.46,6.46,0,0,0,1.58-3.6C61.43,260.93,61.41,234.68,61.41,207.53Zm48.5-12v84.89h56.3V195.54A242.59,242.59,0,0,0,109.91,195.5Z" transform="translate(0 0)"/><path class="cls-1" d="M208,72.35h37.29a22.17,22.17,0,0,1,3.74.16,5.36,5.36,0,0,1,4.82,5.37c.16,3.11-1.31,5.34-4.45,6a22.91,22.91,0,0,1-4.84.29q-83.59,0-167.21,0c-8,0-9.4-1.38-9.36-9.37,0-9.86-.44-19.72,2.39-29.39,7.53-25.74,30.11-44,56.9-45.05,12.81-.52,25.71-1.25,38.25,3a62.35,62.35,0,0,1,42.43,55.08C208.18,62.92,208,67.41,208,72.35ZM80.17,72.06H196.31c0-3.38.06-6.48,0-9.57-.63-25.1-17.22-45.28-41.83-49.43-9-1.52-18.43-1.07-27.64-.71C102.3,13.32,75.85,35.25,80.17,72.06Z" transform="translate(0 0)"/><path class="cls-1" d="M139,175.66c-8.55,0-15.72-2.49-22.55-6a103.63,103.63,0,0,1-34.58-29.36c-7-9.09-9.65-19.55-10.55-30.7-.38-4.6-1.22-9.17-1.71-13.76-.45-4.17,1.54-7,5-7.43,3.28-.42,6,1.72,6.59,5.67,1,6,2.17,12.09,2.5,18.18.55,9.92,4.89,18,11.15,25.21a88.05,88.05,0,0,0,30.79,23.37,29.26,29.26,0,0,0,25.35-.11,88,88,0,0,0,35.68-30.06c5.25-7.46,5.58-16.14,6.8-24.63.57-4,1-7.94,1.6-11.89.56-3.77,3.32-6.12,6.59-5.76,3.49.39,5.72,3.38,5.24,7.35-1,8-1.92,16.12-3.18,24.14-1.54,9.85-6.74,18-13.16,25.26-12.25,13.95-26.39,25.15-44.89,29.7a22.33,22.33,0,0,1-2.94.52C141.27,175.51,139.77,175.59,139,175.66Z" transform="translate(0 0)"/></svg>