<svg id="Layer_1" data-name="Layer 1" xmlns="http://www.w3.org/2000/svg" viewBox="0 0 180.57 51.52"><defs><style>.cls-1{fill:#fff;}.cls-2{fill:#f35d22;}</style></defs><path class="cls-1" d="M57,29.75V5.25h9.17a10.73,10.73,0,0,1,4.93,1A6.77,6.77,0,0,1,74,9a8,8,0,0,1,.94,3.92A7.82,7.82,0,0,1,74,16.66a6.77,6.77,0,0,1-2.87,2.78,10.38,10.38,0,0,1-5,1.07H61.71v9.24Zm4.72-13.06h4.17a4.38,4.38,0,0,0,3.27-1,3.77,3.77,0,0,0,1-2.75,3.77,3.77,0,0,0-1-2.81,4.46,4.46,0,0,0-3.27-1H61.71Z" transform="translate(0 -4.41)"/><path class="cls-1" d="M78.37,29.75V4.55H83.1v25.2Z" transform="translate(0 -4.41)"/><path class="cls-1" d="M94.3,30.17a7.19,7.19,0,0,1-3.66-.89,5.82,5.82,0,0,1-2.33-2.63,10.23,10.23,0,0,1-.8-4.29V12.11h4.72v9.76a4.93,4.93,0,0,0,.9,3.22,3.32,3.32,0,0,0,2.74,1.09,4,4,0,0,0,2.1-.54,3.93,3.93,0,0,0,1.46-1.58,5.42,5.42,0,0,0,.54-2.54V12.11h4.69V29.75h-4.13l-.39-2.87a5.88,5.88,0,0,1-2.27,2.4A6.93,6.93,0,0,1,94.3,30.17Z" transform="translate(0 -4.41)"/><path class="cls-1" d="M109.28,29.75V12.11h4.16l.39,2.34a6.15,6.15,0,0,1,2.22-2,6.54,6.54,0,0,1,3.17-.75,7.63,7.63,0,0,1,2.38.35,5.76,5.76,0,0,1,1.87,1,5.18,5.18,0,0,1,1.35,1.67,6.82,6.82,0,0,1,2.55-2.24,7.53,7.53,0,0,1,3.43-.8,7.32,7.32,0,0,1,3.85.93A5.75,5.75,0,0,1,137,15.29a10.44,10.44,0,0,1,.79,4.31V29.75h-4.69V20a5.45,5.45,0,0,0-.82-3.22,2.94,2.94,0,0,0-2.54-1.12,3.67,3.67,0,0,0-2,.56,3.57,3.57,0,0,0-1.34,1.61,6,6,0,0,0-.48,2.52v9.38h-4.72V20a5.3,5.3,0,0,0-.84-3.22,3,3,0,0,0-2.59-1.12,3.47,3.47,0,0,0-1.94.56,3.55,3.55,0,0,0-1.33,1.61,6,6,0,0,0-.48,2.52v9.38Z" transform="translate(0 -4.41)"/><path class="cls-1" d="M143,29.75V16.06H140.6V12.11H143V10.53a7.12,7.12,0,0,1,.73-3.5,4.39,4.39,0,0,1,2.12-1.89,8.26,8.26,0,0,1,3.24-.59H151v4h-1.22a2.37,2.37,0,0,0-1.58.44,2,2,0,0,0-.49,1.49v1.61h11.1V29.75h-4.73V16.06h-6.37V29.75Zm13.47-20A2.94,2.94,0,0,1,154.41,9,2.53,2.53,0,0,1,153.59,7a2.41,2.41,0,0,1,.82-1.89,3,3,0,0,1,2.08-.73,3.05,3.05,0,0,1,2.12.73A2.41,2.41,0,0,1,159.43,7,2.53,2.53,0,0,1,158.61,9,3,3,0,0,1,156.49,9.73Z" transform="translate(0 -4.41)"/><path class="cls-1" d="M161.92,29.75l6.33-8.82-6.33-8.82H167l4.23,6.05,4.24-6.05h5.07l-6.33,8.82,6.33,8.82H175.5l-4.24-6.09L167,29.75Z" transform="translate(0 -4.41)"/><path class="cls-1" d="M61.4,48.38a4.21,4.21,0,0,1-2.28-.6,3.89,3.89,0,0,1-1.48-1.65,6.08,6.08,0,0,1,0-4.92,3.85,3.85,0,0,1,1.49-1.65A4.2,4.2,0,0,1,61.4,39a4,4,0,0,1,2.49.73,3.35,3.35,0,0,1,1.23,2h-1a2.44,2.44,0,0,0-.88-1.42,2.85,2.85,0,0,0-1.83-.54,3.22,3.22,0,0,0-1.76.47,3.14,3.14,0,0,0-1.17,1.34,5.58,5.58,0,0,0,0,4.2,3.14,3.14,0,0,0,1.17,1.34,3.22,3.22,0,0,0,1.76.47,2.85,2.85,0,0,0,1.83-.53,2.42,2.42,0,0,0,.88-1.4h1a3.34,3.34,0,0,1-1.23,2A3.94,3.94,0,0,1,61.4,48.38Z" transform="translate(0 -4.41)"/><path class="cls-1" d="M68.6,48.22V38.86h.91v9.36Z" transform="translate(0 -4.41)"/><path class="cls-1" d="M76.09,48.38A3.07,3.07,0,0,1,74.48,48a3,3,0,0,1-1.09-1.21,4.34,4.34,0,0,1,0-3.62,2.85,2.85,0,0,1,1.1-1.18,3.05,3.05,0,0,1,1.63-.43,2.9,2.9,0,0,1,1.62.43,2.84,2.84,0,0,1,1,1.12,3.32,3.32,0,0,1,.35,1.51v.26c0,.09,0,.2,0,.32H73.68v-.76h4.51a2,2,0,0,0-2.12-2.1,2.21,2.21,0,0,0-1.07.27,2.12,2.12,0,0,0-.82.78,2.51,2.51,0,0,0-.3,1.29V45a3,3,0,0,0,.32,1.47,2.1,2.1,0,0,0,.82.87,2.18,2.18,0,0,0,1.07.29,2.11,2.11,0,0,0,1.22-.33,1.88,1.88,0,0,0,.69-.92h.9a2.91,2.91,0,0,1-.54,1,2.57,2.57,0,0,1-1,.73A3.05,3.05,0,0,1,76.09,48.38Z" transform="translate(0 -4.41)"/><path class="cls-1" d="M84.58,48.38a2.74,2.74,0,0,1-1.32-.29,1.93,1.93,0,0,1-.78-.74,2,2,0,0,1-.26-1,1.91,1.91,0,0,1,.35-1.15,2.09,2.09,0,0,1,1-.7A4.32,4.32,0,0,1,85,44.27h1.77a2.64,2.64,0,0,0-.19-1.08,1.45,1.45,0,0,0-.57-.67,1.79,1.79,0,0,0-.94-.23,1.94,1.94,0,0,0-1.16.34,1.5,1.5,0,0,0-.6,1h-1a2.13,2.13,0,0,1,.48-1.16,2.47,2.47,0,0,1,1-.71,3.22,3.22,0,0,1,1.24-.24,2.81,2.81,0,0,1,1.47.35,2.11,2.11,0,0,1,.86.94,3.18,3.18,0,0,1,.28,1.38v4h-.83l0-1.2a2.55,2.55,0,0,1-.33.52A2.13,2.13,0,0,1,86,48a2.55,2.55,0,0,1-.62.3A2.76,2.76,0,0,1,84.58,48.38Zm.1-.81a1.86,1.86,0,0,0,.87-.19,2.08,2.08,0,0,0,.65-.53,2.34,2.34,0,0,0,.42-.74,2.64,2.64,0,0,0,.14-.84V45h-1.7A3.1,3.1,0,0,0,84,45.2a1.37,1.37,0,0,0-.6.46,1.3,1.3,0,0,0,0,1.32,1.14,1.14,0,0,0,.51.43A1.88,1.88,0,0,0,84.68,47.57Z" transform="translate(0 -4.41)"/><path class="cls-1" d="M91.31,48.22V41.67h.83l0,1.17a2.33,2.33,0,0,1,.91-1,2.55,2.55,0,0,1,1.32-.35,2.72,2.72,0,0,1,1.31.3,2.1,2.1,0,0,1,.87.9,3.37,3.37,0,0,1,.31,1.55v4H96V44.36a2.29,2.29,0,0,0-.45-1.55,1.64,1.64,0,0,0-1.29-.5,2.05,2.05,0,0,0-1.05.27,1.93,1.93,0,0,0-.72.82,2.86,2.86,0,0,0-.27,1.31v3.51Z" transform="translate(0 -4.41)"/><path class="cls-1" d="M108.72,48.38a3.51,3.51,0,0,1-1.59-.35,2.62,2.62,0,0,1-1.07-1,2.72,2.72,0,0,1-.37-1.45,2.64,2.64,0,0,1,1.06-2.19,4.2,4.2,0,0,1,1.28-.68l.35-.12.51.61-.46.16a3.23,3.23,0,0,0-1.38.88,2,2,0,0,0-.45,1.31,1.89,1.89,0,0,0,.27,1,1.86,1.86,0,0,0,.76.71,2.22,2.22,0,0,0,1.11.26,2.84,2.84,0,0,0,1.43-.36A4.64,4.64,0,0,0,111.46,46l.54-.78c.19-.29.38-.61.58-.95l.44-.76h1l-.62,1.1c-.23.4-.45.77-.67,1.1s-.44.63-.65.9A5.27,5.27,0,0,1,110.51,48,3.9,3.9,0,0,1,108.72,48.38Zm4.27-.16-5-5.08a5.75,5.75,0,0,1-.85-1.1,2.35,2.35,0,0,1-.26-1.1,1.86,1.86,0,0,1,.28-1,1.84,1.84,0,0,1,.78-.7A2.71,2.71,0,0,1,109.2,39a2.64,2.64,0,0,1,1.19.26,1.88,1.88,0,0,1,.79.71,1.84,1.84,0,0,1,.27,1.06h-.91a1.16,1.16,0,0,0-.41-1,1.6,1.6,0,0,0-1.95,0,1.15,1.15,0,0,0-.36.87,1.72,1.72,0,0,0,.24.86,5.89,5.89,0,0,0,.71.92l5.41,5.51Z" transform="translate(0 -4.41)"/><path class="cls-1" d="M125.79,48.38a3.92,3.92,0,0,1-1.74-.37,2.58,2.58,0,0,1-1.12-1,2.89,2.89,0,0,1-.39-1.5h.94a2.21,2.21,0,0,0,.26,1,2.06,2.06,0,0,0,.77.78,2.58,2.58,0,0,0,1.28.29,2.52,2.52,0,0,0,1.13-.23,1.69,1.69,0,0,0,.71-.6,1.5,1.5,0,0,0,.25-.86,1.59,1.59,0,0,0-.24-.92,1.78,1.78,0,0,0-.66-.58A6.34,6.34,0,0,0,126,44l-1.11-.36a3.81,3.81,0,0,1-1.55-.89,2,2,0,0,1-.51-1.37,2.34,2.34,0,0,1,.34-1.27,2.39,2.39,0,0,1,1-.87,3.39,3.39,0,0,1,1.51-.32,3.26,3.26,0,0,1,1.48.32,2.48,2.48,0,0,1,1,.89,2.42,2.42,0,0,1,.35,1.29h-.94a1.69,1.69,0,0,0-.21-.81,1.66,1.66,0,0,0-.64-.65,2,2,0,0,0-1.07-.26,2.28,2.28,0,0,0-.94.19,1.53,1.53,0,0,0-.65.55,1.55,1.55,0,0,0-.23.84,1.27,1.27,0,0,0,.21.76,1.59,1.59,0,0,0,.58.5,5.86,5.86,0,0,0,.89.36l1.13.37a5.13,5.13,0,0,1,1.13.53,2.3,2.3,0,0,1,.78.8,2.38,2.38,0,0,1,.28,1.23A2.39,2.39,0,0,1,127.48,48,3.61,3.61,0,0,1,125.79,48.38Z" transform="translate(0 -4.41)"/><path class="cls-1" d="M135.08,48.38a2.93,2.93,0,0,1-2.7-1.64,4.4,4.4,0,0,1,0-3.62,2.79,2.79,0,0,1,1.1-1.18,3,3,0,0,1,1.63-.43,2.79,2.79,0,0,1,2.62,1.55,3.32,3.32,0,0,1,.34,1.51v.26c0,.09,0,.2,0,.32h-5.38v-.76h4.51a2.15,2.15,0,0,0-.63-1.55,2.1,2.1,0,0,0-1.49-.55,2.28,2.28,0,0,0-1.08.27,2,2,0,0,0-.81.78,2.42,2.42,0,0,0-.31,1.29V45a3.08,3.08,0,0,0,.32,1.47,2.21,2.21,0,0,0,3.11.83,1.88,1.88,0,0,0,.69-.92h.9a2.89,2.89,0,0,1-.53,1,2.75,2.75,0,0,1-1,.73A3.1,3.1,0,0,1,135.08,48.38Z" transform="translate(0 -4.41)"/><path class="cls-1" d="M141.48,48.22V41.67h.83l.06,1.26a2.27,2.27,0,0,1,1.41-1.25,3.51,3.51,0,0,1,1.12-.17v1h-.35a3.1,3.1,0,0,0-.81.11,1.92,1.92,0,0,0-.69.37,1.89,1.89,0,0,0-.48.7,3,3,0,0,0-.18,1.11v3.47Z" transform="translate(0 -4.41)"/><path class="cls-1" d="M150,48.22l-2.5-6.55h.95l2.08,5.67,2.08-5.67h.94l-2.51,6.55Z" transform="translate(0 -4.41)"/><path class="cls-1" d="M157.34,40.12a.63.63,0,0,1-.47-.19.62.62,0,0,1-.2-.47.66.66,0,0,1,.19-.48.72.72,0,0,1,.48-.17.68.68,0,0,1,.45.17.63.63,0,0,1,.2.48.65.65,0,0,1-.19.47A.62.62,0,0,1,157.34,40.12Zm-.46,8.1V41.67h.91v6.55Z" transform="translate(0 -4.41)"/><path class="cls-1" d="M164.56,48.38A3.15,3.15,0,0,1,163,48a3.09,3.09,0,0,1-1.14-1.21,3.66,3.66,0,0,1-.42-1.78,3.74,3.74,0,0,1,.42-1.82A3.18,3.18,0,0,1,163,42a3.28,3.28,0,0,1,3.52.15,2.63,2.63,0,0,1,1,1.57h-.91a1.63,1.63,0,0,0-.68-1,2.29,2.29,0,0,0-1.29-.35,2.11,2.11,0,0,0-1.92,1.17,3.07,3.07,0,0,0-.31,1.48,3.35,3.35,0,0,0,.18,1.15,2.36,2.36,0,0,0,.5.83,2.08,2.08,0,0,0,.72.5,2.12,2.12,0,0,0,.83.17,2.31,2.31,0,0,0,.89-.16,1.83,1.83,0,0,0,.7-.48,1.58,1.58,0,0,0,.38-.75h.91a2.58,2.58,0,0,1-1,1.55A3,3,0,0,1,164.56,48.38Z" transform="translate(0 -4.41)"/><path class="cls-1" d="M173.73,48.38a2.9,2.9,0,0,1-2.7-1.64,4.4,4.4,0,0,1,0-3.62,2.83,2.83,0,0,1,1.09-1.18,3.09,3.09,0,0,1,1.64-.43,2.79,2.79,0,0,1,2.62,1.55,3.45,3.45,0,0,1,.34,1.51v.26c0,.09,0,.2,0,.32h-5.39v-.76h4.52a2.11,2.11,0,0,0-.64-1.55,2.07,2.07,0,0,0-1.48-.55,2.28,2.28,0,0,0-1.08.27,2.12,2.12,0,0,0-.82.78,2.51,2.51,0,0,0-.3,1.29V45a3.08,3.08,0,0,0,.32,1.47,2.12,2.12,0,0,0,1.89,1.16,2.11,2.11,0,0,0,1.22-.33,1.88,1.88,0,0,0,.69-.92h.9a2.76,2.76,0,0,1-.54,1,2.62,2.62,0,0,1-.94.73A3.13,3.13,0,0,1,173.73,48.38Z" transform="translate(0 -4.41)"/><path class="cls-2" d="M33.28,38.42s-2.84,3.36-3,3.46c.08.06.68.82,1.26,1.57a2.13,2.13,0,0,1-.26,2.89l-.68.6a2.68,2.68,0,0,1-3.8-.2l-.05-.06L25.36,45.1a6.42,6.42,0,0,0,3.27-2.54c1.29-2.34-1.27-3.65-1.27-3.65-.65-2.65-2.2-2.74-2.2-2.74l-.35-1a8.58,8.58,0,0,0,3.39.14v-.69a6.81,6.81,0,0,1-6-1.94l-1.84,1.11.6,1.3c.43,1.47-1.37,2-1.37,2l-2.57-2.75a.74.74,0,0,1-.12-.85l2-3.91a1.61,1.61,0,0,1,1.45-.87c2.42,0,8.4.09,8.3.13S35.11,24.87,39.85,22L37.32,16a4.93,4.93,0,0,0-2.89-2.7L14.67,6.46A4.45,4.45,0,0,0,9.17,8.8l-8.72,19a4.85,4.85,0,0,0-.06,4l9,21.2a4.87,4.87,0,0,0,6.4,2.58h0l27.93-11.9a4.87,4.87,0,0,0,2.58-6.4h0L44.55,33ZM13.09,10.3A2,2,0,1,1,12,13a2,2,0,0,1,1.08-2.68ZM7.37,26.73,6.49,23.1l1-.7,2.87,3.21,3.36-2.43L11,19.68l.88-.85,2.66.84L16.89,23v3l1.47,2-2.8,5.2-2.84-3.45-3.19-.86ZM15.85,34l1.79,2.11-2.26,1.34S14.33,35.37,15.85,34Zm1.83,6-1.09-1.26a.58.58,0,0,1,.2-.71L18.31,37l1.33,1.17s2.63-1.3,2.34-2.46a.61.61,0,0,1,.32-.8h0l.44-.19a.75.75,0,0,1,1,.39h0l.17.41a.94.94,0,0,1-.33,1.15l-5,3.47A.68.68,0,0,1,17.68,40Zm2.22,2.11a1.1,1.1,0,0,1,0-1.56.69.69,0,0,1,.13-.11l4-2.93a1.15,1.15,0,0,1,1.54.18,1.23,1.23,0,0,1-.11,1.74l-.16.13L21,42.24A.91.91,0,0,1,19.9,42.11Zm3.76,2.29s-1.25.58-2.3-1.1l4.85-2.92a1.08,1.08,0,0,1,1.41.23,1.1,1.1,0,0,1,0,1.44,9.14,9.14,0,0,1-3.92,2.35Z" transform="translate(0 -4.41)"/></svg>